<?xml version="1.0" encoding="utf-8"?>
<!-- Generator: Adobe Illustrator 26.0.3, SVG Export Plug-In . SVG Version: 6.00 Build 0)  -->
<svg version="1.0" id="katman_1" xmlns="http://www.w3.org/2000/svg" xmlns:xlink="http://www.w3.org/1999/xlink" x="0px" y="0px"
	 viewBox="0 0 800 600" style="enable-background:new 0 0 800 600;" xml:space="preserve">
<style type="text/css">
	.st0{fill:url(#SVGID_1_);}
</style>
<g id="Layer_2">
	<g id="Layer_2-2">
		
			<linearGradient id="SVGID_1_" gradientUnits="userSpaceOnUse" x1="209.6214" y1="493.7607" x2="506.5059" y2="196.8893" gradientTransform="matrix(1.1742 0 0 -1.1742 -21.1191 709.1945)">
			<stop  offset="0" style="stop-color:#3FE0C5"/>
			<stop  offset="0.5" style="stop-color:#E4A663"/>
			<stop  offset="0.56" style="stop-color:#E49D68"/>
			<stop  offset="0.67" style="stop-color:#E58577"/>
			<stop  offset="0.8" style="stop-color:#E65D8F"/>
			<stop  offset="0.95" style="stop-color:#E826B0"/>
			<stop  offset="1" style="stop-color:#E911BD"/>
		</linearGradient>
		<path class="st0" d="M396.9,61.1c43.4-0.3,86.2,10.5,124.2,31.5c38.1,21,68,49.6,89.7,85.8c22.4,37.5,33.5,78.5,33.5,123.2
			c0,54.6-15.3,103.4-45.8,146.4s-70.5,72.8-119.7,89.2c-5.3,1.3-9.4,0.6-12.3-2c-2.9-2.5-4.5-6.1-4.4-9.9v-82.8
			c0-21-5.6-36.1-16.8-45.3c24.3-2.6,42.4-5.9,54.2-9.9c18.4-6.6,32.6-16.4,42.4-29.6c11.2-17.1,16.8-40.4,16.7-70
			c0-12.5-2.3-23.3-6.9-32.5c-3.3-6.6-9.5-14.8-18.7-24.6c2.8-7.6,4.5-15.6,4.9-23.7c0.6-14.8-1.7-29.5-6.9-43.4
			c-6.6-2-15.8-0.7-27.6,3.9c-9.5,4.1-18.7,8.7-27.6,13.8l-12.8,8.9c-20.3-5.9-41.4-8.9-62.6-8.9c-20.9-0.1-41.6,2.9-61.6,8.9
			l-12.8-8.9c-9.2-5.3-18.7-9.9-28.6-13.8c-11.8-4.6-20.7-5.9-26.6-3.9c-5.8,13.7-8.1,28.6-6.8,43.4c0,9.2,1.3,16.8,3.9,22.7
			c-6.9,8.3-12.7,17.4-17.2,27.2c-3.6,8.2-5.4,18.5-5.4,31.1c0,29.6,5.3,52.6,15.8,69.1c9.2,13.8,23,24,41.4,30.5
			c11.8,3.9,29.6,7.2,53.2,9.9c-8.5,7.9-13.8,19-15.8,33.5c-11.2,5.3-22.1,7.2-32.6,5.8c-17.1-1.3-30.2-10.2-39.4-26.6
			c-3.8-7.1-9.2-13.1-15.8-17.7c-4.7-2.7-9.7-5-14.8-6.9l-6.9-1c-7.2,0-11,1.1-11.3,3.4s1.1,4.8,4.4,7.4l4.9,3.9
			c5.4,3.3,10.1,7.7,13.8,12.8c4,4.7,7.4,10.1,9.9,15.8l3.9,7.8c3.1,9.7,9.8,17.8,18.7,22.7c8.8,4.9,18.6,7.9,28.6,8.9
			c8.2,0.6,16.4,0.3,24.6-1l10.9-1l1,60.1c0.1,3.8-1.6,7.4-4.4,9.9c-3,2.6-7.1,3.3-12.3,2c-50-16.4-90.4-46.2-121.3-89.2
			s-46.3-91.8-46.3-146.4c0-44.7,10.5-85.5,31.5-122.2c20.5-36.3,50.5-66.3,86.7-86.7C310.4,71.6,351.5,61.1,396.9,61.1z
			 M240.1,393.3c1.3-1.3,3.4-1.5,4.9-0.5c2,1,2.6,2.3,2,3.9s-2.1,1.8-4.4,0.5C240.3,395.9,239.5,394.6,240.1,393.3z M251,401.2
			c1.3-1.3,3-1,4.9,1c2,2,2.3,3.6,1,4.9c-1.3,1.3-3,1-4.9-1C250,404.1,249.7,402.5,251,401.2z M260.8,414c1.8-1.2,4.2-0.8,5.4,1
			c0.2,0.3,0.4,0.6,0.5,1c2,2.6,2,4.6,0,5.9c-0.7,0.7-1.5,0.7-2.5,0c-1.1-0.7-2.3-1.4-3.5-2C259.5,416.6,259.5,414.6,260.8,414
			L260.8,414z M272.7,427.8c0.8-0.7,2-0.9,3-0.5c2.6,0.7,4.7,2.8,5.4,5.4c0.4,1,0.2,2.1-0.5,3c-2,2-4.3,1.6-6.9-1
			c-1.2-1-1.9-2.4-2-3.9C271.6,429.7,272,428.6,272.7,427.8L272.7,427.8z M288.5,440.6c0.6-2.6,2.6-3.5,5.9-2.5
			c3.3,1,4.8,2.3,4.4,3.9c-0.2,1.5-1.1,2.8-2.5,3.5c-1.2,0.7-2.7,0.7-3.9,0c-1.3-0.6-2.4-1.5-3.4-2.5
			C288,442.1,287.8,441.2,288.5,440.6L288.5,440.6z M319,444.5c0-0.7-0.5-1.3-1.5-2c-1.4-0.8-2.9-1.1-4.4-1c-3.3,0-4.9,1.3-4.9,3.9
			s1.8,3.8,5.4,3.5C317.1,448.7,319,447.2,319,444.5L319,444.5z M331.9,438.7c3.3,0,5.1,1,5.4,2.9s-1.2,3.6-4.4,4.9
			c-1.2,0-2.3-0.1-3.4-0.5c-1-0.3-1.6-1.5-2-3.4C327.1,440.7,328.5,439.3,331.9,438.7z"/>
	</g>
</g>
</svg>
